# xmcd
#
# Track frame offsets:
#	150
#	10654
#	32256
#	46225
#	61002
#	81512
#	101850
#	123598
#	142948
#
# Disc length: 2129 seconds
#
# Revision: 0
# Processed by: cddbd v1.4PL0 Copyright (c) Steve Scherf et al.
# Submitted via: EasyCDDAExtractor 4.6.0.1
#
DISCID=6a084f09
DTITLE=Dalton - Rip, Roar and Holler
DYEAR=2000
DGENRE=Country
TTITLE0=Honky Tonk Time
TTITLE1=Where Ever You Are
TTITLE2=Cheap Talk
TTITLE3=Just Don't Care
TTITLE4=Run
TTITLE5=Rip, Roar and Holler
TTITLE6=It's Been Too Late
TTITLE7=I Can't Believe
TTITLE8=Too Big For Words
EXTD=
EXTT0=
EXTT1=
EXTT2=
EXTT3=
EXTT4=
EXTT5=
EXTT6=
EXTT7=
EXTT8=
PLAYORDER=
